<svg xmlns="http://www.w3.org/2000/svg" viewBox="0 0 760 380" font-family="-apple-system,Segoe UI,Roboto,Helvetica,Arial,sans-serif"><line x1="128.23529411764707" y1="30" x2="128.23529411764707" y2="320" stroke="#888" stroke-width="1" stroke-dasharray="3 3"/><line x1="451.7647058823529" y1="30" x2="451.7647058823529" y2="320" stroke="#888" stroke-width="1" stroke-dasharray="3 3"/><line x1="70" y1="320" x2="510" y2="320" stroke="#888" stroke-width="1.5" /><line x1="70" y1="30" x2="70" y2="320" stroke="#888" stroke-width="1.5" /><line x1="70" y1="61.07142857142861" x2="510" y2="61.07142857142861" stroke="#888" stroke-width="1" stroke-dasharray="2 4"/><text x="62" y="65.07142857142861" font-size="13" fill="#888" text-anchor="end" font-weight="normal">1×</text><text x="62" y="194.5357142857143" font-size="13" fill="#888" text-anchor="end" font-weight="normal">½×</text><text x="62" y="324" font-size="13" fill="#888" text-anchor="end" font-weight="normal">0×</text><text x="128.23529411764707" y="342" font-size="12" fill="#888" text-anchor="middle" font-weight="normal">window start</text><text x="451.7647058823529" y="342" font-size="12" fill="#888" text-anchor="middle" font-weight="normal">window end</text><text x="290" y="366" font-size="12" fill="#888" text-anchor="middle" font-weight="normal">progress through the window →</text><text x="70" y="18" font-size="13" fill="#888" text-anchor="start" font-weight="bold">fake-clock speed</text><path d="M70.0 61.1 L128.2 61.1 L128.2 190.5 L451.8 190.5 L451.8 61.1 L451.8 61.1 L510.0 61.1" fill="none" stroke="#e15759" stroke-width="2.5"  stroke-linejoin="round" stroke-linecap="round"/><path d="M70.0 61.1 L128.2 61.1 L129.9 61.1 L131.5 61.3 L133.1 61.6 L134.7 62.1 L136.3 62.7 L137.9 63.4 L139.6 64.2 L141.2 65.1 L142.8 66.2 L144.4 67.4 L146.0 68.7 L147.6 70.2 L149.3 71.7 L150.9 73.4 L152.5 75.2 L154.1 77.1 L155.7 79.1 L157.4 81.2 L159.0 83.5 L160.6 85.8 L162.2 88.2 L163.8 90.8 L165.4 93.4 L167.1 96.2 L168.7 99.0 L170.3 101.9 L171.9 104.9 L173.5 108.0 L175.1 111.2 L176.8 114.4 L178.4 117.8 L180.0 121.2 L181.6 124.6 L183.2 128.2 L184.9 131.8 L186.5 135.4 L188.1 139.1 L189.7 142.9 L191.3 146.7 L192.9 150.5 L194.6 154.4 L196.2 158.3 L197.8 162.3 L199.4 166.3 L201.0 170.3 L202.6 174.3 L204.3 178.4 L205.9 182.4 L207.5 186.5 L209.1 190.5 L210.7 194.6 L212.4 198.7 L214.0 202.7 L215.6 206.8 L217.2 210.8 L218.8 214.8 L220.4 218.8 L222.1 222.7 L223.7 226.7 L225.3 230.5 L226.9 234.4 L228.5 238.2 L230.1 242.0 L231.8 245.7 L233.4 249.3 L235.0 252.9 L236.6 256.4 L238.2 259.9 L239.9 263.3 L241.5 266.6 L243.1 269.9 L244.7 273.1 L246.3 276.2 L247.9 279.2 L249.6 282.1 L251.2 284.9 L252.8 287.6 L254.4 290.3 L256.0 292.8 L257.6 295.3 L259.3 297.6 L260.9 299.8 L262.5 302.0 L264.1 304.0 L265.7 305.9 L267.4 307.7 L269.0 309.4 L270.6 310.9 L272.2 312.3 L273.8 313.7 L275.4 314.9 L277.1 315.9 L278.7 316.9 L280.3 317.7 L281.9 318.4 L283.5 319.0 L285.1 319.4 L286.8 319.7 L288.4 319.9 L290.0 320.0 L291.6 319.9 L293.2 319.7 L294.9 319.4 L296.5 319.0 L298.1 318.4 L299.7 317.7 L301.3 316.9 L302.9 315.9 L304.6 314.9 L306.2 313.7 L307.8 312.3 L309.4 310.9 L311.0 309.4 L312.6 307.7 L314.3 305.9 L315.9 304.0 L317.5 302.0 L319.1 299.8 L320.7 297.6 L322.4 295.3 L324.0 292.8 L325.6 290.3 L327.2 287.6 L328.8 284.9 L330.4 282.1 L332.1 279.2 L333.7 276.2 L335.3 273.1 L336.9 269.9 L338.5 266.6 L340.1 263.3 L341.8 259.9 L343.4 256.4 L345.0 252.9 L346.6 249.3 L348.2 245.7 L349.9 242.0 L351.5 238.2 L353.1 234.4 L354.7 230.5 L356.3 226.7 L357.9 222.7 L359.6 218.8 L361.2 214.8 L362.8 210.8 L364.4 206.8 L366.0 202.7 L367.6 198.7 L369.3 194.6 L370.9 190.5 L372.5 186.5 L374.1 182.4 L375.7 178.4 L377.4 174.3 L379.0 170.3 L380.6 166.3 L382.2 162.3 L383.8 158.3 L385.4 154.4 L387.1 150.5 L388.7 146.7 L390.3 142.9 L391.9 139.1 L393.5 135.4 L395.1 131.8 L396.8 128.2 L398.4 124.6 L400.0 121.2 L401.6 117.8 L403.2 114.4 L404.9 111.2 L406.5 108.0 L408.1 104.9 L409.7 101.9 L411.3 99.0 L412.9 96.2 L414.6 93.4 L416.2 90.8 L417.8 88.2 L419.4 85.8 L421.0 83.5 L422.6 81.2 L424.3 79.1 L425.9 77.1 L427.5 75.2 L429.1 73.4 L430.7 71.7 L432.4 70.2 L434.0 68.7 L435.6 67.4 L437.2 66.2 L438.8 65.1 L440.4 64.2 L442.1 63.4 L443.7 62.7 L445.3 62.1 L446.9 61.6 L448.5 61.3 L450.1 61.1 L451.8 61.1 L510.0 61.1" fill="none" stroke="#4e79a7" stroke-width="2.5"  stroke-linejoin="round" stroke-linecap="round"/><path d="M70.0 61.1 L128.2 61.1 L129.9 62.0 L131.5 64.6 L133.1 68.9 L134.7 74.8 L136.3 82.1 L137.9 90.7 L139.6 100.3 L141.2 110.8 L142.8 121.7 L144.4 133.0 L146.0 144.2 L147.6 155.2 L149.3 165.6 L150.9 175.3 L152.5 183.9 L154.1 191.2 L155.7 197.1 L157.4 201.4 L159.0 204.0 L160.6 204.9 L162.2 204.9 L163.8 204.9 L165.4 204.9 L167.1 204.9 L168.7 204.9 L170.3 204.9 L171.9 204.9 L173.5 204.9 L175.1 204.9 L176.8 204.9 L178.4 204.9 L180.0 204.9 L181.6 204.9 L183.2 204.9 L184.9 204.9 L186.5 204.9 L188.1 204.9 L189.7 204.9 L191.3 204.9 L192.9 204.9 L194.6 204.9 L196.2 204.9 L197.8 204.9 L199.4 204.9 L201.0 204.9 L202.6 204.9 L204.3 204.9 L205.9 204.9 L207.5 204.9 L209.1 204.9 L210.7 204.9 L212.4 204.9 L214.0 204.9 L215.6 204.9 L217.2 204.9 L218.8 204.9 L220.4 204.9 L222.1 204.9 L223.7 204.9 L225.3 204.9 L226.9 204.9 L228.5 204.9 L230.1 204.9 L231.8 204.9 L233.4 204.9 L235.0 204.9 L236.6 204.9 L238.2 204.9 L239.9 204.9 L241.5 204.9 L243.1 204.9 L244.7 204.9 L246.3 204.9 L247.9 204.9 L249.6 204.9 L251.2 204.9 L252.8 204.9 L254.4 204.9 L256.0 204.9 L257.6 204.9 L259.3 204.9 L260.9 204.9 L262.5 204.9 L264.1 204.9 L265.7 204.9 L267.4 204.9 L269.0 204.9 L270.6 204.9 L272.2 204.9 L273.8 204.9 L275.4 204.9 L277.1 204.9 L278.7 204.9 L280.3 204.9 L281.9 204.9 L283.5 204.9 L285.1 204.9 L286.8 204.9 L288.4 204.9 L290.0 204.9 L291.6 204.9 L293.2 204.9 L294.9 204.9 L296.5 204.9 L298.1 204.9 L299.7 204.9 L301.3 204.9 L302.9 204.9 L304.6 204.9 L306.2 204.9 L307.8 204.9 L309.4 204.9 L311.0 204.9 L312.6 204.9 L314.3 204.9 L315.9 204.9 L317.5 204.9 L319.1 204.9 L320.7 204.9 L322.4 204.9 L324.0 204.9 L325.6 204.9 L327.2 204.9 L328.8 204.9 L330.4 204.9 L332.1 204.9 L333.7 204.9 L335.3 204.9 L336.9 204.9 L338.5 204.9 L340.1 204.9 L341.8 204.9 L343.4 204.9 L345.0 204.9 L346.6 204.9 L348.2 204.9 L349.9 204.9 L351.5 204.9 L353.1 204.9 L354.7 204.9 L356.3 204.9 L357.9 204.9 L359.6 204.9 L361.2 204.9 L362.8 204.9 L364.4 204.9 L366.0 204.9 L367.6 204.9 L369.3 204.9 L370.9 204.9 L372.5 204.9 L374.1 204.9 L375.7 204.9 L377.4 204.9 L379.0 204.9 L380.6 204.9 L382.2 204.9 L383.8 204.9 L385.4 204.9 L387.1 204.9 L388.7 204.9 L390.3 204.9 L391.9 204.9 L393.5 204.9 L395.1 204.9 L396.8 204.9 L398.4 204.9 L400.0 204.9 L401.6 204.9 L403.2 204.9 L404.9 204.9 L406.5 204.9 L408.1 204.9 L409.7 204.9 L411.3 204.9 L412.9 204.9 L414.6 204.9 L416.2 204.9 L417.8 204.9 L419.4 204.9 L421.0 204.0 L422.6 201.4 L424.3 197.1 L425.9 191.2 L427.5 183.9 L429.1 175.3 L430.7 165.6 L432.4 155.2 L434.0 144.2 L435.6 133.0 L437.2 121.7 L438.8 110.8 L440.4 100.3 L442.1 90.7 L443.7 82.1 L445.3 74.8 L446.9 68.9 L448.5 64.6 L450.1 62.0 L451.8 61.1 L510.0 61.1" fill="none" stroke="#59a14f" stroke-width="2.5"  stroke-linejoin="round" stroke-linecap="round"/><line x1="534" y1="56" x2="560" y2="56" stroke="#e15759" stroke-width="3" /><text x="568" y="60" font-size="13" fill="#e15759" text-anchor="start" font-weight="bold">Constant</text><text x="568" y="77" font-size="11" fill="#888" text-anchor="start" font-weight="normal">snaps at both seams</text><line x1="534" y1="108" x2="560" y2="108" stroke="#4e79a7" stroke-width="3" /><text x="568" y="112" font-size="13" fill="#4e79a7" text-anchor="start" font-weight="bold">Eased — bump</text><text x="568" y="129" font-size="11" fill="#888" text-anchor="start" font-weight="normal">default; freezes at midpoint</text><line x1="534" y1="160" x2="560" y2="160" stroke="#59a14f" stroke-width="3" /><text x="568" y="164" font-size="13" fill="#59a14f" text-anchor="start" font-weight="bold">Eased — plateau</text><text x="568" y="181" font-size="11" fill="#888" text-anchor="start" font-weight="normal">ramp 0.1; gentle &amp; sustained</text></svg>