<svg xmlns="http://www.w3.org/2000/svg" viewBox="0 0 760 380" font-family="-apple-system,Segoe UI,Roboto,Helvetica,Arial,sans-serif"><line x1="64" y1="30" x2="64" y2="324" stroke="#888" stroke-width="1" /><text x="64" y="344" font-size="11" fill="#888" text-anchor="middle" font-weight="normal">1am</text><line x1="138.22222222222223" y1="30" x2="138.22222222222223" y2="324" stroke="#888" stroke-width="1" stroke-dasharray="2 5"/><text x="138.22222222222223" y="344" font-size="11" fill="#888" text-anchor="middle" font-weight="normal">2am</text><line x1="212.44444444444443" y1="30" x2="212.44444444444443" y2="324" stroke="#888" stroke-width="1" stroke-dasharray="2 5"/><text x="212.44444444444443" y="344" font-size="11" fill="#888" text-anchor="middle" font-weight="normal">3am</text><line x1="286.66666666666663" y1="30" x2="286.66666666666663" y2="324" stroke="#888" stroke-width="1" /><text x="286.66666666666663" y="344" font-size="11" fill="#888" text-anchor="middle" font-weight="normal">4am</text><line x1="360.88888888888886" y1="30" x2="360.88888888888886" y2="324" stroke="#888" stroke-width="1" stroke-dasharray="2 5"/><text x="360.88888888888886" y="344" font-size="11" fill="#888" text-anchor="middle" font-weight="normal">5am</text><line x1="435.11111111111114" y1="30" x2="435.11111111111114" y2="324" stroke="#888" stroke-width="1" stroke-dasharray="2 5"/><text x="435.11111111111114" y="344" font-size="11" fill="#888" text-anchor="middle" font-weight="normal">6am</text><line x1="509.3333333333333" y1="30" x2="509.3333333333333" y2="324" stroke="#888" stroke-width="1" /><text x="509.3333333333333" y="344" font-size="11" fill="#888" text-anchor="middle" font-weight="normal">7am</text><line x1="583.5555555555555" y1="30" x2="583.5555555555555" y2="324" stroke="#888" stroke-width="1" stroke-dasharray="2 5"/><text x="583.5555555555555" y="344" font-size="11" fill="#888" text-anchor="middle" font-weight="normal">8am</text><line x1="657.7777777777777" y1="30" x2="657.7777777777777" y2="324" stroke="#888" stroke-width="1" stroke-dasharray="2 5"/><text x="657.7777777777777" y="344" font-size="11" fill="#888" text-anchor="middle" font-weight="normal">9am</text><line x1="732" y1="30" x2="732" y2="324" stroke="#888" stroke-width="1" /><text x="732" y="344" font-size="11" fill="#888" text-anchor="middle" font-weight="normal">10am</text><line x1="64" y1="51.30434782608694" x2="732" y2="51.30434782608694" stroke="#888" stroke-width="1" stroke-dasharray="2 5"/><text x="56" y="55.30434782608694" font-size="13" fill="#888" text-anchor="end" font-weight="normal">0h</text><line x1="64" y1="136.52173913043475" x2="732" y2="136.52173913043475" stroke="#888" stroke-width="1" stroke-dasharray="2 5"/><text x="56" y="140.52173913043475" font-size="13" fill="#888" text-anchor="end" font-weight="normal">-1h</text><line x1="64" y1="221.7391304347826" x2="732" y2="221.7391304347826" stroke="#888" stroke-width="1" stroke-dasharray="2 5"/><text x="56" y="225.7391304347826" font-size="13" fill="#888" text-anchor="end" font-weight="normal">-2h</text><line x1="64" y1="306.95652173913044" x2="732" y2="306.95652173913044" stroke="#888" stroke-width="1" stroke-dasharray="2 5"/><text x="56" y="310.95652173913044" font-size="13" fill="#888" text-anchor="end" font-weight="normal">-3h</text><line x1="64" y1="30" x2="64" y2="324" stroke="#888" stroke-width="1.5" /><text x="64" y="18" font-size="13" fill="#888" text-anchor="start" font-weight="bold">how far the fake clock lags real time</text><text x="398" y="368" font-size="12" fill="#888" text-anchor="middle" font-weight="normal">real time →</text><line x1="509.3333333333333" y1="30" x2="509.3333333333333" y2="324" stroke="#888" stroke-width="1.2" /><text x="509.3333333333333" y="32" font-size="11" fill="#888" text-anchor="middle" font-weight="normal">seam</text><path d="M64.0 51.3 L65.9 52.4 L67.7 53.4 L69.6 54.5 L71.4 55.6 L73.3 56.6 L75.1 57.7 L77.0 58.8 L78.8 59.8 L80.7 60.9 L82.6 62.0 L84.4 63.0 L86.3 64.1 L88.1 65.2 L90.0 66.2 L91.8 67.3 L93.7 68.3 L95.5 69.4 L97.4 70.5 L99.3 71.5 L101.1 72.6 L103.0 73.7 L104.8 74.7 L106.7 75.8 L108.5 76.9 L110.4 77.9 L112.2 79.0 L114.1 80.1 L116.0 81.1 L117.8 82.2 L119.7 83.3 L121.5 84.3 L123.4 85.4 L125.2 86.5 L127.1 87.5 L128.9 88.6 L130.8 89.7 L132.7 90.7 L134.5 91.8 L136.4 92.8 L138.2 93.9 L140.1 95.0 L141.9 96.0 L143.8 97.1 L145.6 98.2 L147.5 99.2 L149.4 100.3 L151.2 101.4 L153.1 102.4 L154.9 103.5 L156.8 104.6 L158.6 105.6 L160.5 106.7 L162.3 107.8 L164.2 108.8 L166.1 109.9 L167.9 111.0 L169.8 112.0 L171.6 113.1 L173.5 114.2 L175.3 115.2 L177.2 116.3 L179.0 117.3 L180.9 118.4 L182.8 119.5 L184.6 120.5 L186.5 121.6 L188.3 122.7 L190.2 123.7 L192.0 124.8 L193.9 125.9 L195.7 126.9 L197.6 128.0 L199.5 129.1 L201.3 130.1 L203.2 131.2 L205.0 132.3 L206.9 133.3 L208.7 134.4 L210.6 135.5 L212.4 136.5 L214.3 137.6 L216.2 138.7 L218.0 139.7 L219.9 140.8 L221.7 141.8 L223.6 142.9 L225.4 144.0 L227.3 145.0 L229.1 146.1 L231.0 147.2 L232.9 148.2 L234.7 149.3 L236.6 150.4 L238.4 151.4 L240.3 152.5 L242.1 153.6 L244.0 154.6 L245.8 155.7 L247.7 156.8 L249.6 157.8 L251.4 158.9 L253.3 160.0 L255.1 161.0 L257.0 162.1 L258.8 163.2 L260.7 164.2 L262.5 165.3 L264.4 166.3 L266.3 167.4 L268.1 168.5 L270.0 169.5 L271.8 170.6 L273.7 171.7 L275.5 172.7 L277.4 173.8 L279.2 174.9 L281.1 175.9 L283.0 177.0 L284.8 178.1 L286.7 179.1 L288.5 180.2 L290.4 181.3 L292.2 182.3 L294.1 183.4 L295.9 184.5 L297.8 185.5 L299.7 186.6 L301.5 187.7 L303.4 188.7 L305.2 189.8 L307.1 190.8 L308.9 191.9 L310.8 193.0 L312.6 194.0 L314.5 195.1 L316.4 196.2 L318.2 197.2 L320.1 198.3 L321.9 199.4 L323.8 200.4 L325.6 201.5 L327.5 202.6 L329.3 203.6 L331.2 204.7 L333.1 205.8 L334.9 206.8 L336.8 207.9 L338.6 209.0 L340.5 210.0 L342.3 211.1 L344.2 212.2 L346.0 213.2 L347.9 214.3 L349.8 215.3 L351.6 216.4 L353.5 217.5 L355.3 218.5 L357.2 219.6 L359.0 220.7 L360.9 221.7 L362.7 222.8 L364.6 223.9 L366.5 224.9 L368.3 226.0 L370.2 227.1 L372.0 228.1 L373.9 229.2 L375.7 230.3 L377.6 231.3 L379.4 232.4 L381.3 233.5 L383.2 234.5 L385.0 235.6 L386.9 236.7 L388.7 237.7 L390.6 238.8 L392.4 239.8 L394.3 240.9 L396.1 242.0 L398.0 243.0 L399.9 244.1 L401.7 245.2 L403.6 246.2 L405.4 247.3 L407.3 248.4 L409.1 249.4 L411.0 250.5 L412.8 251.6 L414.7 252.6 L416.6 253.7 L418.4 254.8 L420.3 255.8 L422.1 256.9 L424.0 258.0 L425.8 259.0 L427.7 260.1 L429.5 261.2 L431.4 262.2 L433.3 263.3 L435.1 264.3 L437.0 265.4 L438.8 266.5 L440.7 267.5 L442.5 268.6 L444.4 269.7 L446.2 270.7 L448.1 271.8 L450.0 272.9 L451.8 273.9 L453.7 275.0 L455.5 276.1 L457.4 277.1 L459.2 278.2 L461.1 279.3 L462.9 280.3 L464.8 281.4 L466.7 282.5 L468.5 283.5 L470.4 284.6 L472.2 285.7 L474.1 286.7 L475.9 287.8 L477.8 288.8 L479.6 289.9 L481.5 291.0 L483.4 292.0 L485.2 293.1 L487.1 294.2 L488.9 295.2 L490.8 296.3 L492.6 297.4 L494.5 298.4 L496.3 299.5 L498.2 300.6 L500.1 301.6 L501.9 302.7 L503.8 303.8 L505.6 304.8 L507.5 305.9 L509.3 307.0 L511.2 304.8 L513.0 302.7 L514.9 300.6 L516.8 298.4 L518.6 296.3 L520.5 294.2 L522.3 292.0 L524.2 289.9 L526.0 287.8 L527.9 285.7 L529.7 283.5 L531.6 281.4 L533.5 279.3 L535.3 277.1 L537.2 275.0 L539.0 272.9 L540.9 270.7 L542.7 268.6 L544.6 266.5 L546.4 264.3 L548.3 262.2 L550.2 260.1 L552.0 258.0 L553.9 255.8 L555.7 253.7 L557.6 251.6 L559.4 249.4 L561.3 247.3 L563.1 245.2 L565.0 243.0 L566.9 240.9 L568.7 238.8 L570.6 236.7 L572.4 234.5 L574.3 232.4 L576.1 230.3 L578.0 228.1 L579.8 226.0 L581.7 223.9 L583.6 221.7 L585.4 219.6 L587.3 217.5 L589.1 215.3 L591.0 213.2 L592.8 211.1 L594.7 209.0 L596.5 206.8 L598.4 204.7 L600.3 202.6 L602.1 200.4 L604.0 198.3 L605.8 196.2 L607.7 194.0 L609.5 191.9 L611.4 189.8 L613.2 187.7 L615.1 185.5 L617.0 183.4 L618.8 181.3 L620.7 179.1 L622.5 177.0 L624.4 174.9 L626.2 172.7 L628.1 170.6 L629.9 168.5 L631.8 166.3 L633.7 164.2 L635.5 162.1 L637.4 160.0 L639.2 157.8 L641.1 155.7 L642.9 153.6 L644.8 151.4 L646.6 149.3 L648.5 147.2 L650.4 145.0 L652.2 142.9 L654.1 140.8 L655.9 138.7 L657.8 136.5 L659.6 134.4 L661.5 132.3 L663.3 130.1 L665.2 128.0 L667.1 125.9 L668.9 123.7 L670.8 121.6 L672.6 119.5 L674.5 117.3 L676.3 115.2 L678.2 113.1 L680.0 111.0 L681.9 108.8 L683.8 106.7 L685.6 104.6 L687.5 102.4 L689.3 100.3 L691.2 98.2 L693.0 96.0 L694.9 93.9 L696.7 91.8 L698.6 89.7 L700.5 87.5 L702.3 85.4 L704.2 83.3 L706.0 81.1 L707.9 79.0 L709.7 76.9 L711.6 74.7 L713.4 72.6 L715.3 70.5 L717.2 68.3 L719.0 66.2 L720.9 64.1 L722.7 62.0 L724.6 59.8 L726.4 57.7 L728.3 55.6 L730.1 53.4 L732.0 51.3" fill="none" stroke="#e15759" stroke-width="2.5"  stroke-linejoin="round" stroke-linecap="round"/><path d="M64.0 51.3 L65.9 51.3 L67.7 51.3 L69.6 51.3 L71.4 51.3 L73.3 51.3 L75.1 51.3 L77.0 51.3 L78.8 51.4 L80.7 51.4 L82.6 51.4 L84.4 51.5 L86.3 51.5 L88.1 51.6 L90.0 51.6 L91.8 51.7 L93.7 51.8 L95.5 51.9 L97.4 52.0 L99.3 52.1 L101.1 52.3 L103.0 52.4 L104.8 52.6 L106.7 52.8 L108.5 53.0 L110.4 53.2 L112.2 53.4 L114.1 53.6 L116.0 53.9 L117.8 54.2 L119.7 54.5 L121.5 54.8 L123.4 55.2 L125.2 55.5 L127.1 55.9 L128.9 56.3 L130.8 56.7 L132.7 57.2 L134.5 57.7 L136.4 58.2 L138.2 58.7 L140.1 59.2 L141.9 59.8 L143.8 60.4 L145.6 61.0 L147.5 61.6 L149.4 62.3 L151.2 63.0 L153.1 63.7 L154.9 64.5 L156.8 65.3 L158.6 66.1 L160.5 66.9 L162.3 67.8 L164.2 68.6 L166.1 69.6 L167.9 70.5 L169.8 71.5 L171.6 72.5 L173.5 73.5 L175.3 74.5 L177.2 75.6 L179.0 76.7 L180.9 77.9 L182.8 79.0 L184.6 80.2 L186.5 81.4 L188.3 82.7 L190.2 83.9 L192.0 85.2 L193.9 86.6 L195.7 87.9 L197.6 89.3 L199.5 90.7 L201.3 92.1 L203.2 93.6 L205.0 95.1 L206.9 96.6 L208.7 98.1 L210.6 99.7 L212.4 101.3 L214.3 102.9 L216.2 104.5 L218.0 106.2 L219.9 107.9 L221.7 109.6 L223.6 111.3 L225.4 113.0 L227.3 114.8 L229.1 116.6 L231.0 118.4 L232.9 120.2 L234.7 122.1 L236.6 123.9 L238.4 125.8 L240.3 127.7 L242.1 129.6 L244.0 131.6 L245.8 133.5 L247.7 135.5 L249.6 137.5 L251.4 139.5 L253.3 141.5 L255.1 143.5 L257.0 145.5 L258.8 147.6 L260.7 149.6 L262.5 151.7 L264.4 153.8 L266.3 155.9 L268.1 157.9 L270.0 160.0 L271.8 162.1 L273.7 164.3 L275.5 166.4 L277.4 168.5 L279.2 170.6 L281.1 172.7 L283.0 174.9 L284.8 177.0 L286.7 179.1 L288.5 181.3 L290.4 183.4 L292.2 185.5 L294.1 187.6 L295.9 189.8 L297.8 191.9 L299.7 194.0 L301.5 196.1 L303.4 198.2 L305.2 200.3 L307.1 202.4 L308.9 204.5 L310.8 206.6 L312.6 208.6 L314.5 210.7 L316.4 212.7 L318.2 214.8 L320.1 216.8 L321.9 218.8 L323.8 220.8 L325.6 222.8 L327.5 224.7 L329.3 226.7 L331.2 228.6 L333.1 230.5 L334.9 232.4 L336.8 234.3 L338.6 236.2 L340.5 238.0 L342.3 239.9 L344.2 241.7 L346.0 243.5 L347.9 245.2 L349.8 247.0 L351.6 248.7 L353.5 250.4 L355.3 252.1 L357.2 253.7 L359.0 255.4 L360.9 257.0 L362.7 258.6 L364.6 260.1 L366.5 261.7 L368.3 263.2 L370.2 264.7 L372.0 266.1 L373.9 267.6 L375.7 269.0 L377.6 270.3 L379.4 271.7 L381.3 273.0 L383.2 274.3 L385.0 275.6 L386.9 276.8 L388.7 278.1 L390.6 279.2 L392.4 280.4 L394.3 281.5 L396.1 282.7 L398.0 283.7 L399.9 284.8 L401.7 285.8 L403.6 286.8 L405.4 287.8 L407.3 288.7 L409.1 289.6 L411.0 290.5 L412.8 291.4 L414.7 292.2 L416.6 293.0 L418.4 293.8 L420.3 294.5 L422.1 295.2 L424.0 295.9 L425.8 296.6 L427.7 297.3 L429.5 297.9 L431.4 298.5 L433.3 299.0 L435.1 299.6 L437.0 300.1 L438.8 300.6 L440.7 301.1 L442.5 301.5 L444.4 302.0 L446.2 302.4 L448.1 302.7 L450.0 303.1 L451.8 303.4 L453.7 303.8 L455.5 304.1 L457.4 304.4 L459.2 304.6 L461.1 304.9 L462.9 305.1 L464.8 305.3 L466.7 305.5 L468.5 305.7 L470.4 305.8 L472.2 306.0 L474.1 306.1 L475.9 306.3 L477.8 306.4 L479.6 306.5 L481.5 306.5 L483.4 306.6 L485.2 306.7 L487.1 306.7 L488.9 306.8 L490.8 306.8 L492.6 306.9 L494.5 306.9 L496.3 306.9 L498.2 306.9 L500.1 306.9 L501.9 306.9 L503.8 307.0 L505.6 307.0 L507.5 307.0 L509.3 307.0 L511.2 307.0 L513.0 306.9 L514.9 306.9 L516.8 306.9 L518.6 306.8 L520.5 306.7 L522.3 306.6 L524.2 306.5 L526.0 306.3 L527.9 306.0 L529.7 305.7 L531.6 305.3 L533.5 304.9 L535.3 304.4 L537.2 303.8 L539.0 303.1 L540.9 302.4 L542.7 301.5 L544.6 300.6 L546.4 299.6 L548.3 298.5 L550.2 297.3 L552.0 295.9 L553.9 294.5 L555.7 293.0 L557.6 291.4 L559.4 289.6 L561.3 287.8 L563.1 285.8 L565.0 283.7 L566.9 281.5 L568.7 279.2 L570.6 276.8 L572.4 274.3 L574.3 271.7 L576.1 269.0 L578.0 266.1 L579.8 263.2 L581.7 260.1 L583.6 257.0 L585.4 253.7 L587.3 250.4 L589.1 247.0 L591.0 243.5 L592.8 239.9 L594.7 236.2 L596.5 232.4 L598.4 228.6 L600.3 224.7 L602.1 220.8 L604.0 216.8 L605.8 212.7 L607.7 208.6 L609.5 204.5 L611.4 200.3 L613.2 196.1 L615.1 191.9 L617.0 187.6 L618.8 183.4 L620.7 179.1 L622.5 174.9 L624.4 170.6 L626.2 166.4 L628.1 162.1 L629.9 157.9 L631.8 153.8 L633.7 149.6 L635.5 145.5 L637.4 141.5 L639.2 137.5 L641.1 133.5 L642.9 129.6 L644.8 125.8 L646.6 122.1 L648.5 118.4 L650.4 114.8 L652.2 111.3 L654.1 107.9 L655.9 104.5 L657.8 101.3 L659.6 98.1 L661.5 95.1 L663.3 92.1 L665.2 89.3 L667.1 86.6 L668.9 83.9 L670.8 81.4 L672.6 79.0 L674.5 76.7 L676.3 74.5 L678.2 72.5 L680.0 70.5 L681.9 68.6 L683.8 66.9 L685.6 65.3 L687.5 63.7 L689.3 62.3 L691.2 61.0 L693.0 59.8 L694.9 58.7 L696.7 57.7 L698.6 56.7 L700.5 55.9 L702.3 55.2 L704.2 54.5 L706.0 53.9 L707.9 53.4 L709.7 53.0 L711.6 52.6 L713.4 52.3 L715.3 52.0 L717.2 51.8 L719.0 51.6 L720.9 51.5 L722.7 51.4 L724.6 51.4 L726.4 51.3 L728.3 51.3 L730.1 51.3 L732.0 51.3" fill="none" stroke="#4e79a7" stroke-width="2.5"  stroke-linejoin="round" stroke-linecap="round"/><line x1="138.22222222222223" y1="234.7826086956522" x2="164.22222222222223" y2="234.7826086956522" stroke="#e15759" stroke-width="3" /><text x="172.22222222222223" y="238.7826086956522" font-size="12" fill="#e15759" text-anchor="start" font-weight="bold">Constant — kinked corners</text><line x1="138.22222222222223" y1="256.7826086956522" x2="164.22222222222223" y2="256.7826086956522" stroke="#4e79a7" stroke-width="3" /><text x="172.22222222222223" y="260.7826086956522" font-size="12" fill="#4e79a7" text-anchor="start" font-weight="bold">Eased — flat tangents, no kink</text><text x="138.22222222222223" y="282.7826086956522" font-size="11" fill="#888" text-anchor="start" font-weight="normal">same endpoints: −3h at 7am, back to 0 by 10am</text></svg>